<svg id="904bb0c4-214b-4551-a1d6-d51e7665c49b" data-name="Layer 1" xmlns="http://www.w3.org/2000/svg" viewBox="0 0 164 54"><title>coming-soon</title><path d="M0,4,16,14V54L0,44Z" fill="#ddc151" fill-rule="evenodd"/><path d="M0,0H148.6c5,0,6.69,1.46,7.47,4.78L163.61,38c1,3.77.24,6-4.49,6H0Z" fill="#fedf61" fill-rule="evenodd"/><path d="M48.33,20.09a3,3,0,0,1,1,.17,9.77,9.77,0,0,1,1,.4l.59-1.48a7.18,7.18,0,0,0-1.23-.44,5.61,5.61,0,0,0-1.28-.16,4,4,0,0,0-2.19.57,3.57,3.57,0,0,0-1.36,1.56A5.32,5.32,0,0,0,44.31,23a6.07,6.07,0,0,0,.41,2.31A3.18,3.18,0,0,0,46,26.84a4,4,0,0,0,2.19.55,6.62,6.62,0,0,0,1.23-.11A6.16,6.16,0,0,0,50.52,27V25.42a9.43,9.43,0,0,1-1.14.34,4.7,4.7,0,0,1-1.05.12,1.83,1.83,0,0,1-1.63-.75A3.75,3.75,0,0,1,46.19,23a3.65,3.65,0,0,1,.55-2.14A1.83,1.83,0,0,1,48.33,20.09Zm9.77-1a4.29,4.29,0,0,0-2.29-.55,4.34,4.34,0,0,0-2.31.55,3.28,3.28,0,0,0-1.34,1.53A5.47,5.47,0,0,0,51.72,23a5.6,5.6,0,0,0,.44,2.33,3.38,3.38,0,0,0,1.34,1.55,5.08,5.08,0,0,0,4.6,0,3.35,3.35,0,0,0,1.34-1.54,6.36,6.36,0,0,0,0-4.65A3.28,3.28,0,0,0,58.1,19.12Zm-.63,6a2.17,2.17,0,0,1-3.33,0A3.8,3.8,0,0,1,53.63,23a3.78,3.78,0,0,1,.51-2.11,1.86,1.86,0,0,1,1.67-.78,1.83,1.83,0,0,1,1.66.78A3.87,3.87,0,0,1,58,23,3.89,3.89,0,0,1,57.47,25.09Zm8.72.16h0l-2-6.55H61.65v8.57h1.62v-4c0-.29,0-.62,0-1s0-.71,0-1,0-.56,0-.72h0l2.07,6.72H67l2.2-6.71h0q0,.24,0,.72c0,.31,0,.65,0,1s0,.66,0,.93v4.06h1.69V18.7H68.34Zm6.08-5.52,1,.48v5.55l-1,.48v1h3.9v-1l-1-.48V20.21l1-.48v-1h-3.9Zm11.33,3c0,.4,0,.79,0,1.19s0,.78,0,1.17h0L79.93,18.7H77.64v8.57h1.62v-4L79.2,22c0-.4,0-.81,0-1.22h0l3.73,6.48h2.3V18.7H83.6Zm7,1.21h1.62v1.79l-.5.08a4,4,0,0,1-.65,0,2,2,0,0,1-2-1.38A4.53,4.53,0,0,1,88.88,23a3.56,3.56,0,0,1,.32-1.54,2.36,2.36,0,0,1,.9-1,2.54,2.54,0,0,1,1.37-.36,4.11,4.11,0,0,1,1.06.14,4.54,4.54,0,0,1,.9.33l.6-1.45a5.82,5.82,0,0,0-1.2-.38,6.07,6.07,0,0,0-1.35-.15,5.09,5.09,0,0,0-2.44.54,3.62,3.62,0,0,0-1.52,1.53A5,5,0,0,0,87,23a4.7,4.7,0,0,0,1,3.29A3.81,3.81,0,0,0,91,27.39a9.2,9.2,0,0,0,1.65-.13A10.63,10.63,0,0,0,94,26.9V22.46h-3.4Zm12.65-1a6.89,6.89,0,0,0-1.13-.64c-.53-.26-.94-.48-1.21-.65a.83.83,0,0,1-.41-.72.81.81,0,0,1,.28-.63,1.17,1.17,0,0,1,.79-.24,3.43,3.43,0,0,1,1,.14,8.52,8.52,0,0,1,1.06.37l.59-1.42a8.87,8.87,0,0,0-1.28-.44,4.75,4.75,0,0,0-1.27-.16,3.29,3.29,0,0,0-2.12.64,2.21,2.21,0,0,0-.78,1.8,2.39,2.39,0,0,0,.2,1,2.51,2.51,0,0,0,.52.71,3.69,3.69,0,0,0,.67.49c.23.13.45.25.65.34l.85.43a2,2,0,0,1,.59.43.75.75,0,0,1,.23.55.84.84,0,0,1-.29.65,1.38,1.38,0,0,1-1,.26,3.94,3.94,0,0,1-1.3-.22c-.44-.15-.86-.31-1.27-.49v1.69a5.42,5.42,0,0,0,2.43.52,3.59,3.59,0,0,0,2.33-.68,2.23,2.23,0,0,0,.82-1.82,2.26,2.26,0,0,0-.25-1.12A2.56,2.56,0,0,0,103.29,23Zm8.52-3.85a4.29,4.29,0,0,0-2.29-.55,4.34,4.34,0,0,0-2.31.55,3.28,3.28,0,0,0-1.34,1.53,5.47,5.47,0,0,0-.44,2.31,5.6,5.6,0,0,0,.44,2.33,3.38,3.38,0,0,0,1.34,1.55,5.08,5.08,0,0,0,4.6,0,3.35,3.35,0,0,0,1.34-1.54,6.36,6.36,0,0,0,0-4.65A3.28,3.28,0,0,0,111.81,19.12Zm-.63,6a2.17,2.17,0,0,1-3.33,0,3.8,3.8,0,0,1-.51-2.12,3.78,3.78,0,0,1,.51-2.11,1.86,1.86,0,0,1,1.67-.78,1.83,1.83,0,0,1,1.66.78,3.87,3.87,0,0,1,.5,2.11A3.89,3.89,0,0,1,111.18,25.09Zm10.18-6a4.29,4.29,0,0,0-2.29-.55,4.39,4.39,0,0,0-2.31.55,3.28,3.28,0,0,0-1.34,1.53A5.63,5.63,0,0,0,115,23a5.76,5.76,0,0,0,.44,2.33,3.38,3.38,0,0,0,1.34,1.55,5.08,5.08,0,0,0,4.6,0,3.35,3.35,0,0,0,1.34-1.54,6.36,6.36,0,0,0,0-4.65A3.28,3.28,0,0,0,121.36,19.12Zm-.63,6a2.17,2.17,0,0,1-3.33,0,3.8,3.8,0,0,1-.51-2.12,3.78,3.78,0,0,1,.51-2.11,1.86,1.86,0,0,1,1.67-.78,1.83,1.83,0,0,1,1.66.78,3.87,3.87,0,0,1,.5,2.11A3.89,3.89,0,0,1,120.73,25.09Zm10.15-2.33c0,.4,0,.79,0,1.19s0,.78,0,1.17h0l-3.72-6.42h-2.29v8.57h1.62v-4L126.48,22c0-.4,0-.81,0-1.22h0l3.73,6.48h2.3V18.7h-1.63ZM136,24.43l.3-5.73h-2l.3,5.73Zm-.72,1a1.18,1.18,0,0,0-.73.23.88.88,0,0,0-.3.77.9.9,0,0,0,.3.76,1.22,1.22,0,0,0,1.45,0,.9.9,0,0,0,.3-.76.88.88,0,0,0-.3-.77A1.17,1.17,0,0,0,135.31,25.43Z" fill="#383838"/><path d="M35.76,19.91l-3.58-.33a.6.6,0,0,1-.51-.37l-1.29-3a.62.62,0,0,0-1.14,0l-1.27,3a.6.6,0,0,1-.51.37l-3.58.33A.6.6,0,0,0,23.53,21l2.7,2.31a.6.6,0,0,1,.19.59l-.81,3.23a.62.62,0,0,0,.92.66l3-1.71a.64.64,0,0,1,.63,0l3,1.71a.62.62,0,0,0,.92-.66l-.8-3.23a.58.58,0,0,1,.19-.59L36.13,21A.61.61,0,0,0,35.76,19.91Z" fill="#383838"/></svg>