<svg id="cb24dff9-081b-443d-a0c6-a7a06fc01ed5" data-name="Layer 1" xmlns="http://www.w3.org/2000/svg" viewBox="0 0 144 144"><title>logo</title><rect width="144" height="144" fill="#088ac8"/><path id="d8b88bee-e92f-4b05-9292-8941201414ce" data-name="bmr" d="M124.23,74.32a27.33,27.33,0,0,0-5.81.91c-2,.52-5.22,2-9.76,4.92a27.18,27.18,0,0,1,3.1-5.44c1.67-2.09.21-2.63-1.77-2.34a38.25,38.25,0,0,0-6,1.49,2.63,2.63,0,0,0-1.63,1.43A141.14,141.14,0,0,0,96.74,90.9,42.24,42.24,0,0,0,90.63,94c1.9-6.41,5.42-14.43,6.63-17.93,1.36-4-.29-3.9-3.59-3.92-2.62,0-6.36,1.48-10.6,4l0,0c1-2.13-1-3.41-3.68-3.54s-4.84,1.61-9.85,4c1-1.43,0,0,1.82-3.52S68.2,71,65.84,71.7a7.25,7.25,0,0,0-5,4,5.2,5.2,0,0,0-.26.68,46,46,0,0,1-5.87,4.13,42.49,42.49,0,0,0,2-4.41c1.18-3.56-.74-5-2.6-5.21a53.38,53.38,0,0,0-6.85.19C60,59.31,68.27,40.14,68.82,36S66.58,29.62,64,29.83a83.5,83.5,0,0,0-8.53,1c-4.39.71-10.6,5.64-13.74,11.49-6,11.31-13.93,43.13-13.23,54.81a3.6,3.6,0,0,0,3.72,3.77s3.47-.09,5.36-.06A7.62,7.62,0,0,0,42.78,99a27.62,27.62,0,0,0,4.54-5.62c1.39-.83,5.74-3.84,9.31-6.48C55,91.54,53.25,97,52.19,100.54a1,1,0,0,0,1.18,1.38c2.28-.34,2.33-.37,3.35-.49a4.87,4.87,0,0,0,3.4-2.4c.71-1.77,4.22-10.38,5.51-13.57a11.5,11.5,0,0,1,1.88-3.15,15.23,15.23,0,0,1,4.4-2.73c3.26-1.48,1.85.83,1.85.83C72.43,83.77,67.6,96.48,66,100.85a1.08,1.08,0,0,0,1,1.49c1.73,0,4.38,0,5-.13,1-.14,1.48-.11,2.23-2.11.51-1.34,3.58-10.17,6.06-16.87a36.47,36.47,0,0,1,4.89-3c2.38-1,2,.37,2,.37s-5.68,15.93-6.58,18.8c-.73,2.29-.14,3.45,1.54,3.54a29.45,29.45,0,0,0,4.41-.27c1.93-.18,1.4-.56,2.27-1.48a27.61,27.61,0,0,1,6.26-4.53c-.8,2.82-1.32,4.86-1.46,5.38-.43,1.65.42,2.12,2.28,2.09,3.47-.06,4.58.68,5.39-2.28,1.15-4.25,2.68-9.32,4.34-14,2.63-3.6,8.28-6,10.55-6.84a.63.63,0,0,1,.84.69,12.46,12.46,0,0,1-.71,3.17c-.39.45-.63,1.54.66,1.51A21.55,21.55,0,0,0,123.33,85c.51-2.75,1.33-6.4,1.57-7.59S126,74.31,124.23,74.32Zm-67-39.75c1.24-1,3.7-2.7,3.13,1.78C58.89,48,49.91,64.06,41.51,69.24,45,54.66,48.77,40.91,57.24,34.57Zm-19,59.78a.67.67,0,0,1-1.16-.51c.34-5,1.3-9.28,1.73-12.65A60.79,60.79,0,0,1,45.39,75c3.86-3.11,2.28,1.88,2.28,1.88C47.5,82.11,42.62,89.79,38.27,94.35Z" opacity="0.15"/><path d="M125.6,65.43a38.62,38.62,0,0,0-6,2.15,49.83,49.83,0,0,0-10,6.63,30.71,30.71,0,0,1,3.13-5.78c1.69-2.29.18-2.51-1.83-1.89A50.41,50.41,0,0,0,104.82,69a3.22,3.22,0,0,0-1.64,1.63,144.56,144.56,0,0,0-5.63,16.27,54.66,54.66,0,0,0-6.24,4.05c1.93-6.82,5.48-15.22,6.69-18.79,1.37-4-.32-3.73-3.67-3.34-2.67.31-6.47,2.21-10.76,5.1v0c1-2.21-1-3.26-3.74-3.17s-4.9,2-10,4.76c1-1.49,0,0,1.85-3.62s-3.23-1.87-5.62-1a7.84,7.84,0,0,0-5,4.2,5.66,5.66,0,0,0-.26.7,49.1,49.1,0,0,1-5.92,4.36,44.44,44.44,0,0,0,2-4.48c1.19-3.61-.75-4.95-2.63-5.13a56.63,56.63,0,0,0-6.9.37C60.17,58.73,68.5,39.4,69,35.31a5.36,5.36,0,0,0-1.26-4.59,4.25,4.25,0,0,0-1.67-1.06,4.39,4.39,0,0,0-1-.23l-.48,0a3.87,3.87,0,0,0-.48,0c-2.57.26-4.17.41-8.59,1.18s-10.68,5.72-13.83,11.6c-3,5.67-6.55,16.49-9.2,27.34C31.25,75,30.14,80.41,29.4,85.22c-.37,2.4-.65,4.65-.81,6.67,0,.5-.07,1-.1,1.46s0,.93,0,1.37a23.82,23.82,0,0,0,0,2.42,3.62,3.62,0,0,0,3.75,3.77s3.49-.09,5.39-.07a7.61,7.61,0,0,0,5.21-1.92A27.58,27.58,0,0,0,47.4,93.2c1.4-.85,5.79-4,9.39-6.77-1.67,4.75-3.42,10.28-4.49,13.93-.26.91.27,1.53,1.2,1.37,2.3-.39,2.35-.43,3.38-.58a5.14,5.14,0,0,0,3.44-2.55c.72-1.84,4.27-10.73,5.58-14a11.67,11.67,0,0,1,1.9-3.28,16.76,16.76,0,0,1,4.45-3c3.3-1.71,1.87.7,1.87.7-1.34,3.44-6.23,16.64-7.91,21.22a1,1,0,0,0,1,1.47c1.76-.1,4.44-.3,5.12-.43,1-.21,1.51-.22,2.27-2.33.52-1.43,3.64-10.73,6.14-17.66a45.59,45.59,0,0,1,5-3.54c2.42-1.29,2,.15,2,.15S82,94.46,81.08,97.58c-.74,2.43-.14,3.59,1.57,3.51a28.57,28.57,0,0,0,4.5-.76c2-.43,1.42-.75,2.31-1.83A36,36,0,0,1,95.86,93c-.81,3-1.34,5.22-1.48,5.78-.43,1.78.44,2.16,2.35,1.83a22.34,22.34,0,0,0,3.78-.67c.84-.34,1.33-1,1.74-2.63,1.17-4.65,2.71-10.08,4.38-15,2.67-4,8.45-7.47,10.78-8.79.45-.25.93,0,.86.47a12.61,12.61,0,0,1-.69,3.18c-.39.51-.62,1.63.7,1.3a27.23,27.23,0,0,0,6.56-2.88c.48-2.71,1.27-6.28,1.5-7.43a12.91,12.91,0,0,0,.38-1.91c0-.58-.23-1-1.12-.74ZM57.36,34.27c1.25-1.06,3.73-2.75,3.16,1.7C59.05,47.52,50,63.8,41.53,69.11,45,54.46,48.84,40.7,57.36,34.27Zm-19.09,60a.67.67,0,0,1-1.16-.51c.34-5,1.31-9.31,1.74-12.69a63.17,63.17,0,0,1,6.6-6.26c3.89-3.19,2.3,1.84,2.3,1.84-.18,5.21-5.09,13-9.48,17.62Z" fill="#fff"/></svg>